<?xml version="1.0" encoding="utf-8"?>
<!-- Generator: Adobe Illustrator 25.2.0, SVG Export Plug-In . SVG Version: 6.00 Build 0)  -->
<svg version="1.1" xmlns="http://www.w3.org/2000/svg" xmlns:xlink="http://www.w3.org/1999/xlink" x="0px" y="0px"
	 viewBox="0 0 629.9 142.8" style="enable-background:new 0 0 629.9 142.8;" xml:space="preserve">
<style type="text/css">
	.st0{fill:#8CD30C;}
	.st1{fill:#20B530;}
	.st2{fill:#FF3DA1;}
	.st3{fill:#FFC4CB;}
	.st4{fill:#02C0FF;}
	.st5{fill:#90EFE9;}
	.st6{fill:#ADFF3D;}
	.st7{fill:#FFA100;}
	.st8{fill:#F9E83B;}
	.st9{fill:#FFFFFF;}
	.st10{fill:#004132;}
	.st11{fill:#FF2111;}
	.st12{fill:none;stroke:#8CD30C;stroke-width:31;stroke-miterlimit:10;}
	.st13{fill:none;stroke:#FFFFFF;stroke-width:8;stroke-miterlimit:10;}
	.st14{clip-path:url(#SVGID_2_);}
	.st15{clip-path:url(#SVGID_4_);}
	.st16{clip-path:url(#SVGID_6_);}
	.st17{fill:#A7CC2B;}
	.st18{fill:none;}
	.st19{clip-path:url(#SVGID_4_);fill:#A7CC2B;}
	.st20{clip-path:url(#SVGID_8_);}
	.st21{clip-path:url(#SVGID_10_);}
	.st22{clip-path:url(#SVGID_8_);fill:#A7CC2B;}
	.st23{clip-path:url(#SVGID_12_);}
	.st24{clip-path:url(#SVGID_14_);}
	.st25{clip-path:url(#SVGID_12_);fill:#A7CC2B;}
	.st26{clip-path:url(#SVGID_16_);}
	.st27{clip-path:url(#SVGID_18_);}
	.st28{clip-path:url(#SVGID_16_);fill:#A7CC2B;}
	.st29{clip-path:url(#SVGID_20_);}
	.st30{clip-path:url(#SVGID_22_);}
	.st31{clip-path:url(#SVGID_22_);fill:#A7CC2B;}
	.st32{clip-path:url(#SVGID_20_);fill:#A7CC2B;}
	.st33{filter:url(#Adobe_OpacityMaskFilter);}
	.st34{fill:url(#SVGID_24_);}
	.st35{opacity:0.1;mask:url(#SVGID_23_);}
	.st36{filter:url(#Adobe_OpacityMaskFilter_1_);}
	.st37{fill:url(#SVGID_26_);}
	.st38{opacity:3.000000e-02;mask:url(#SVGID_25_);}
	.st39{opacity:0.5;}
	.st40{fill:#239E07;}
	.st41{fill:none;stroke:#FFFFFF;stroke-width:3;stroke-miterlimit:10;}
	.st42{fill:#B3B3B3;}
	.st43{fill:none;stroke:#B3B3B3;stroke-width:3;stroke-miterlimit:10;}
</style>
<g id="その他">
</g>
<g id="ロゴ">
	<g>
		<g>
			<path class="st9" d="M122.2,60h-8.7c-0.7,0-1.4,0.1-2.1,0.4c0.2-0.7,0.4-1.4,0.4-2.1v-8.7c0-3.2-2.6-5.9-5.9-5.9h-8.7
				c-0.6,0-1.2,0.1-1.8,0.3c-0.1-0.1-0.1-0.1-0.2-0.2c0.2-0.6,0.3-1.2,0.3-1.8v-8.7c0-3.2-2.6-5.9-5.9-5.9h-8.7
				c-0.7,0-1.4,0.1-2.1,0.4c0.2-0.7,0.4-1.4,0.4-2.1v-8.7c0-3.2-2.6-5.9-5.9-5.9h-8.7c-3.2,0-5.9,2.6-5.9,5.9v8.7
				c0,0.7,0.1,1.4,0.4,2.1c-0.7-0.2-1.4-0.4-2.1-0.4h-8.7c-3.2,0-5.9,2.6-5.9,5.9c0,1.4,0,4.9,0,5.6c0,0.5,0,1.4-0.3,2.2
				c-0.2,0.4-0.4,0.6-0.7,1c-0.3,0.3-0.6,0.6-0.9,0.9c-0.2,0.1-0.5,0.3-0.8,0.4c-1.1,0.3-2.1,0.4-2.6,0.4c-0.5,0-1.4,0-1.7,0
				c-1.6,0-2.7,0-3.3,0c-0.1,0-0.3,0-0.5,0c-3.2,0-5.8,2.6-5.8,5.9v8.7c0,0.6,0.1,1.3,0.3,1.9c-0.5-0.2-1.1-0.2-1.7-0.2h-8.7
				c-3.2,0-5.9,2.6-5.9,5.9v8.7c0,3.2,2.6,5.9,5.9,5.9h8.7c0.6,0,1.2-0.1,1.7-0.2c-0.2,0.6-0.3,1.3-0.3,2v8.7c0,3.2,2.6,5.9,5.9,5.9
				h8.7c0.9,0,1.7-0.2,2.5-0.6c-0.3,0.7-0.5,1.5-0.5,2.3v8.7c0,3.2,2.6,5.9,5.9,5.9h8.7c0.7,0,1.4-0.1,2.1-0.4
				c-0.2,0.7-0.4,1.4-0.4,2.1v8.7c0,3.2,2.6,5.9,5.9,5.9h8.7c3.2,0,5.9-2.6,5.9-5.9v-8.7c0-0.8-0.2-1.6-0.5-2.3
				c0.6,0.2,1.2,0.3,1.9,0.3h8.7c3.2,0,5.9-2.6,5.9-5.9c0-1.4,0-5,0-5.6c0-0.5,0-1.4,0.3-2.2c0.2-0.4,0.4-0.6,0.7-1
				c0.3-0.3,0.6-0.6,0.9-0.9c0,0,0,0,0,0c0.2-0.1,0.5-0.3,0.8-0.4c1.1-0.3,2.1-0.4,2.6-0.4c0.5,0,1.4,0,1.7,0c1.2,0,2.1,0,2.8,0
				c0.4,0,0.6,0,1.1,0c3.2,0,5.8-2.6,5.8-5.9v-8.7c0-0.6-0.1-1.1-0.2-1.7c0.6,0.2,1.2,0.3,1.9,0.3h8.7c3.2,0,5.9-2.6,5.9-5.9v-8.7
				C128,62.6,125.4,60,122.2,60z"/>
			<path class="st9" d="M329.1,88.2C329.1,88.2,329.1,88.2,329.1,88.2c0.8,2.2,2.8,3.6,5.1,3.6h13.2c2.3,0,4.3-1.5,5.1-3.7
				l12.8-37.9c0.6-1.7,0.3-3.5-0.7-4.9c-1-1.4-2.7-2.3-4.4-2.3h-9.2c-2.4,0-4.5,1.5-5.2,3.8l-5.1,16.7l-5.1-16.7
				c-0.7-2.3-2.8-3.8-5.2-3.8h-9.3c-1.8,0-3.4,0.9-4.4,2.3c-1,1.4-1.3,3.3-0.7,4.9L329.1,88.2z"/>
			<path class="st9" d="M410.1,68.7C410.1,68.7,410.1,68.7,410.1,68.7c0-0.8,0.1-1.5,0.1-2.3c0-14.8-8.9-24-23.1-24
				c-14.4,0-23.7,9.8-23.7,25s9.3,25,23.7,25c9.8,0,17.3-5.1,21.1-14.4c0.7-1.7,0.5-3.6-0.5-5.1C409,72,409.9,70.5,410.1,68.7z
				 M388.9,74.1c-0.5,0.4-1.2,0.7-2.4,0.7c-0.9,0-1.7-0.2-2.3-0.6L388.9,74.1z"/>
			<path class="st9" d="M568,43.4c-2.9-0.1-6.2-0.2-9.1,1c-1-0.9-2.2-1.3-3.6-1.3h-9.3c-3,0-5.4,2.4-5.4,5.4v38c0,3,2.4,5.4,5.4,5.4
				h9.3c3,0,5.4-2.4,5.4-5.4V68.9c0-4.4,1.1-5.5,5.8-5.5h1.8c1.2,0,2.3-0.4,3.2-1.1c-0.3,1.6-0.4,3.3-0.4,5.1c0,15.2,9.3,25,23.7,25
				c9.8,0,17.3-5.1,21.1-14.4c0.7-1.7,0.5-3.6-0.5-5.1c1.4-0.9,2.3-2.5,2.4-4.2c0.1-0.8,0.1-1.5,0.1-2.3c0-14.8-8.9-24-23.1-24
				c-9.9,0-17.5,4.7-21.2,12.6v-6.5c0-0.2,0-0.4,0-0.6c-0.4-2.6-2.5-4.5-5.2-4.5L568,43.4z M596.8,74.1c-0.5,0.4-1.2,0.7-2.4,0.7
				c-0.9,0-1.7-0.2-2.3-0.6L596.8,74.1z"/>
			<path class="st9" d="M153.6,28.1h-8.3c-3,0-5.4,2.4-5.4,5.4v49.4c0,3,2.4,5.4,5.4,5.4h8.3c3,0,5.4-2.4,5.4-5.4V33.5
				C159,30.5,156.6,28.1,153.6,28.1z"/>
			<path class="st9" d="M193.4,83V47.1h9.1c2.9,0,5.3-2.4,5.3-5.3v-8.5c0-2.9-2.4-5.3-5.3-5.3h-37.1c-2.9,0-5.3,2.4-5.3,5.3v8.5
				c0,2.9,2.4,5.3,5.3,5.3h9.1V83c0,2.9,2.4,5.3,5.3,5.3h8.5C191,88.2,193.4,85.9,193.4,83z"/>
			<path class="st9" d="M613.2,93H272.2l-3.1-8.6c3.6,4.5,9,7.4,15.7,8c0.9,0.1,1.8,0.1,2.7,0.1c3.4,0,6.4-0.6,8.8-1.8
				c0.9,0.7,2.1,1.1,3.3,1.1h9.3c3,0,5.4-2.4,5.4-5.4V34.9c0-3-2.4-5.4-5.4-5.4h-9.3c-3,0-5.4,2.4-5.4,5.4v9.8
				c-2.9-0.7-6.4-0.9-10.5-0.4c-12.2,1.3-19,9.3-19.6,23c-0.1,1.2,0,2.4,0.1,3.6l-14.6-40.4c-0.8-2.2-2.9-3.6-5.2-3.6h-12.6
				c-2.3,0-4.4,1.5-5.2,3.6l-18.1,49.9c-0.6,1.7-0.4,3.6,0.7,5c1,1.5,2.7,2.3,4.5,2.3h9.8c2.4,0,4.5-1.5,5.2-3.7l1.9-5.7h14.7
				l7.3,20.8c0.2,0.6,0.5,1.1,0.8,1.6h-9.8c-1.9,0-3.8,0.7-5.2,2c-1.4-1.3-3.2-2-5.2-2h-16.1c-1.9,0-3.7,0.7-5.1,1.9
				c-1.4-1.2-3.2-1.9-5.1-1.9h-16.1c-4.3,0-7.7,3.5-7.7,7.7v16.1c0,4.3,3.5,7.7,7.7,7.7h16.1c1.9,0,3.7-0.7,5.1-1.9
				c1.4,1.2,3.2,1.9,5.1,1.9h16.1c1.9,0,3.8-0.7,5.2-2c1.4,1.3,3.2,2,5.2,2h16.1c1.9,0,3.8-0.7,5.2-2c1.4,1.3,3.2,2,5.2,2h16.1
				c4.3,0,7.7-3.5,7.7-7.7v-16.1c0-2.2-0.9-4.1-2.4-5.5h22.5c-0.3,0.2-0.5,0.4-0.7,0.6c-0.4,0.4-0.8,0.9-1.1,1.4H301
				c-2,0-3.7,1.7-3.7,3.7v3.8c0,2,1.7,3.7,3.7,3.7h9.1c-0.3,0.8-0.8,1.4-1.3,1.9c-1.3,1.2-3.6,2-6.7,2.2c-1,0.1-2,0.6-2.6,1.5
				c-0.6,0.8-0.9,1.9-0.7,2.9l0.7,3.7c0.3,1.8,1.8,3,3.6,3c0.1,0,0.2,0,0.3,0c5.6-0.5,10.1-2.3,13.2-5.3c2.7-2.6,4.5-6.1,5.3-10.6
				c0,0,0.1,0,0.1-0.1v11.2c0,2,1.7,3.7,3.7,3.7h18.8c1.5,0,2.8-0.9,3.4-2.2l0.1,0.3c0.3,1.8,1.8,3.1,3.6,3.1c0.1,0,0.2,0,0.3,0
				c6.5-0.6,11.4-2.6,14.5-6.1c2.5-2.8,4.1-6.9,4.5-12l0.2-0.1c-0.1,0.3-0.1,0.6-0.1,0.9v3.6c0,2,1.7,3.7,3.7,3.7h0.6
				c-0.1,0.1-0.2,0.2-0.3,0.3c-0.7,0.8-0.9,1.9-0.8,2.9l0.6,3.6c0.3,1.8,1.8,3.1,3.6,3.1c0.1,0,0.1,0,0.2,0
				c5.9-0.3,10.4-1.8,13.5-4.5c1.8-1.6,3.1-3.6,3.9-6c0,0.2,0,0.3-0.1,0.5l-0.2,4c0,1,0.3,2,1,2.7c0.7,0.7,1.6,1.2,2.6,1.2
				c5.6,0.2,11.5,0.9,17.5,1.9c0.2,0,0.4,0.1,0.6,0.1c0.8,0,1.6-0.3,2.2-0.7c0.8-0.6,1.3-1.6,1.4-2.6l0.2-2.3l0.3,1.9
				c0.3,1.8,1.8,3.1,3.6,3.1c0.1,0,0.2,0,0.3,0c6.1-0.6,10.9-2.5,14.5-5.7c1.6-1.5,3-3.2,4.1-5.3c0.1,0.2,0.3,0.4,0.5,0.5l1.7,1.5
				c-0.1,0.1-0.2,0.2-0.3,0.3c-0.6,0.8-0.9,1.8-0.7,2.8l0.6,3.6c0.3,1.8,1.8,3.1,3.6,3.1c0.1,0,0.2,0,0.3,0
				c6.5-0.6,11.4-2.6,14.5-6.1c2.5-2.8,4.1-6.9,4.5-12l1.7-0.9c0.1-0.1,0.2-0.1,0.3-0.2c0.3,1.7,1.8,3,3.6,3h3.7
				c-2.1,2.1-4.6,4-7.5,5.5c-1.8,0.9-2.5,3.2-1.6,5l1.7,3.3c0.9,1.8,3.1,2.5,4.9,1.6c2.5-1.2,4.9-2.7,7.1-4.4
				c1.1,1.1,2.4,2.4,3.7,3.8c0.7,0.7,1.7,1.1,2.7,1.1c1,0,2-0.4,2.7-1.1l2.6-2.7c0.5-0.5,0.8-1.2,1-1.9l0.5,2.9
				c0.3,1.8,1.8,3.1,3.6,3.1c0.1,0,0.2,0,0.3,0c6.5-0.6,11.3-2.6,14.5-6.1c1.5-1.7,2.7-3.8,3.4-6.3v0.5c0,2,1.7,3.7,3.7,3.7h19.5
				c0.2,0,0.4,0,0.6-0.1c0,0.1-0.1,0.2-0.1,0.3c-0.2,1-0.1,2,0.4,2.8l2.1,3.4c0.7,1.1,1.9,1.8,3.1,1.8c0.6,0,1.2-0.1,1.7-0.4
				c1.2-0.6,2.3-1.3,3.2-2.1c0.6,1.3,1.9,2.2,3.4,2.2h0.6c4.4,0,7.9-1.3,10.4-3.9c2.4-2.4,3.8-6.1,4.2-10.9c0.2-1.9-1.2-3.7-3.1-4h0
				l-3.6-0.5c-0.3,0-0.6-0.1-0.9,0v-4.4c0-2-1.7-3.7-3.7-3.7h-3.9c-0.4,0-0.8,0.1-1.2,0.2c-0.4-0.1-0.8-0.2-1.2-0.2h-3.8
				c-2,0-3.7,1.7-3.7,3.7v5.1c0,1.5,0,2.7,0,3.6c0,0.8-0.1,1.6-0.2,2.3c-0.1,0.8-0.2,1.2-0.3,1.3c0,0,0,0.1-0.2,0.3
				c0,0.1-0.1,0.1-0.1,0.1c0-0.2,0.1-0.4,0.1-0.7v-4c0-2-1.7-3.7-3.7-3.7h-19.5c-1,0-1.9,0.4-2.6,1.1c0.1-1,0.1-2,0.1-3v-0.7
				c0-2-1.7-3.7-3.7-3.7H509c-0.1-0.3-0.3-0.6-0.5-0.8c-0.6-0.8-1.6-1.2-2.6-1.3l-3.7-0.2c-2-0.1-3.7,1.3-3.9,3.3
				c-0.2,1.5-0.6,3-1.3,4.5c-0.7,1.5-1.6,2.8-2.6,3.9c-0.7,0.7-1,1.7-1,2.7c0,1,0.5,1.9,1.2,2.6l1.8,1.6c-0.1,0.1-0.1,0.1-0.2,0.2
				c-0.4,0.5-0.6,1.2-0.7,1.8c-0.2-0.5-0.5-1.1-0.9-1.5c-1.4-1.4-2.7-2.7-4-4c1.1-1.6,2-3.3,2.7-5c0.2-0.5,0.3-1,0.3-1.5v-3.7
				c0-2-1.7-3.7-3.7-3.7h-15.2c-1.3,0-2.5,0.7-3.1,1.7c-0.3-0.7-0.7-1.4-1-2.1c-0.2-0.3-0.4-0.6-0.7-0.9h143.4
				c1.4,0,2.7-0.6,3.6-1.6c0.9-1,1.4-2.3,1.4-3.7C618.1,95.1,615.9,93,613.2,93z M288.4,74.8c-4.2,0-5.4-4.2-5.4-6.6
				c0-4.8,2.9-6.5,5.4-6.5c4,0,5.4,3.5,5.4,6.5S292.3,74.8,288.4,74.8z M505.6,118.2c0.4-0.6,0.7-1.2,1.1-1.8h0.2
				C506.5,117.1,506.1,117.7,505.6,118.2C505.6,118.2,505.6,118.2,505.6,118.2z M240.3,61.2h-4.2l2.1-6.1L240.3,61.2z M333.5,119.4
				v-3.9h3.4v3.9H333.5z M363.4,103l-1.7,0.9c-0.4,0.2-0.8,0.6-1.1,0.9c-0.6-0.7-1.6-1.2-2.5-1.2l-3.7-0.2c-1.9-0.1-3.7,1.3-3.9,3.3
				c-0.2,1.5-0.6,3-1.3,4.5c-0.3,0.6-0.6,1.1-0.9,1.7v-4.5c0-2-1.7-3.7-3.7-3.7h-18.8c-0.5,0-0.9,0.1-1.3,0.2
				c-0.2-0.3-0.5-0.6-0.7-0.9c-0.3-0.3-0.6-0.6-0.9-0.8H363.4z M348.3,121.9v-0.3l0.1,0.1C348.3,121.8,348.3,121.9,348.3,121.9z
				 M421.9,120.8c-0.3,0.4-0.5,0.8-0.6,1.2c-0.5-1-1.3-1.7-2.4-2l0.5-3.7c0-0.3,0-0.6,0-0.9c0.6-0.6,1-1.4,1.1-2.3l0.2-2.1
				c0,0.4,0,0.8,0.2,1.2c0.3,0.9,1,1.7,1.9,2.1c2.1,1.1,4.5,2.3,7,3.8c0,0,0.1,0,0.1,0c-1.5,0.6-3.3,1-5.3,1.2
				C423.5,119.5,422.6,120,421.9,120.8z M459.8,103.8c-0.4,0.2-0.8,0.6-1.1,0.9c-0.6-0.7-1.6-1.2-2.5-1.2l-3.7-0.2
				c-1.9-0.1-3.7,1.3-3.9,3.3c-0.2,1.5-0.6,3-1.3,4.5c-0.1,0.1-0.1,0.2-0.2,0.4c0,0,0,0,0-0.1c0.3-1.9-0.9-3.7-2.8-4.2l-3.6-0.8
				c-1-0.2-2-0.1-2.8,0.5c-0.8,0.5-1.3,1.3-1.6,2.2c-0.3-0.3-0.6-0.6-1-0.9c-2.7-1.5-5.2-2.8-7.5-4c-1.8-0.9-4-0.1-4.9,1.7l-1.8,3.6
				c-0.2,0.3-0.2,0.6-0.3,1l0.1-1.1c0.2-2-1.2-3.8-3.2-4c-5.6-0.8-11.3-1.3-16.8-1.5c-2-0.1-3.7,1.5-3.8,3.5l-0.2,3.8
				c-0.1,1,0.3,2,1,2.7c0.1,0.2,0.3,0.3,0.4,0.4l-0.3,3.8c0,0.1,0,0.3,0,0.4c-0.7,0.4-1.2,0.9-1.5,1.6c0.4-1.6,0.7-3.3,0.7-5.2v-0.7
				c0-1.2-0.5-2.2-1.4-2.9c0,0,0,0,0-0.1v-3.6c0-2-1.7-3.7-3.7-3.7h-15.6c-1.3,0-2.4,0.7-3.1,1.7c-0.3-0.6-0.6-1.2-0.9-1.8
				c-0.2-0.3-0.4-0.6-0.7-0.9h89.7L459.8,103.8z"/>
			<path class="st9" d="M325.5,23.4h1.6c0,1.3-0.1,2.5-0.3,3.2c-0.2,0.9-0.4,1.4-0.6,1.5c-0.2,0.2-0.5,0.5-1.2,1
				c-0.9,0.6-1.6,1.5-1.9,2.5c-0.3,1.1-0.1,2.2,0.5,3.1l1.4,2.4c0.7,1.2,2.1,2,3.5,2c0.7,0,1.4-0.2,2.1-0.6c1.8-1,3.2-2.2,4.2-3.6
				c0.9-1.2,1.7-2.6,2.1-4c1.2,0.3,2.5,0.1,3.5-0.6c1.2-0.9,1.9-1.5,2.7-2.5l0,0.2c0.2,1.1,0.8,2.1,1.6,2.7c0.9,0.6,2,0.9,3.1,0.7
				c1.1-0.2,2.2-0.4,3.3-0.7v4.4c0,2.2,1.8,4.1,4.1,4.1h3.1c2.2,0,4.1-1.8,4.1-4.1v-9.7c1.1-0.7,2.1-1.6,3.1-2.4c0,0,0,0.1,0,0.1
				v2.9c0,2.2,1.8,4,4,4h0.1c-0.2,0.2-0.4,0.5-0.5,0.7c-0.5,0.9-0.7,2.1-0.4,3.1l0.8,2.9c0.5,1.7,2.1,2.9,3.8,2.9
				c0.3,0,0.6,0,0.9-0.1c3.4-0.8,6-2.3,7.8-4.4c1.2-1.4,2-3.1,2.4-5.1h3.3c0.4,0,0.8-0.1,1.1-0.2c0.2,0.9,0.8,1.7,1.6,2.3
				c0.9,0.6,2,0.9,3.1,0.7c0.5-0.1,0.9-0.2,1.4-0.3v2.2c0,2.3,1.8,4.1,4.1,4.1h2.5c2.3,0,4.1-1.8,4.1-4.1v-7
				c0.2-0.2,0.4-0.3,0.7-0.5c0.2,2.1,1.9,3.7,4.1,3.7h10.4c2.3,0,4.1-1.8,4.1-4.1v-3.2c0-0.1,0-0.2,0-0.3c0.1,0,0.1,0,0.2,0h1.6
				c0,1.3-0.1,2.5-0.3,3.2c-0.2,0.9-0.4,1.4-0.6,1.5c-0.2,0.2-0.5,0.5-1.2,1c-0.9,0.6-1.6,1.5-1.9,2.5c-0.3,1.1-0.1,2.2,0.5,3.1
				l1.4,2.4c0.7,1.2,2.1,2,3.5,2c0.7,0,1.4-0.2,2.1-0.6c1.8-1,3.2-2.2,4.2-3.6c0.9-1.2,1.7-2.6,2.1-4c1.2,0.3,2.5,0.1,3.5-0.6
				c1.5-1.1,2.1-1.7,3.4-3.2c0.5-0.6,0.9-1.1,1.2-1.7v9.9c0,2.3,1.8,4.1,4.1,4.1h2.8c2.3,0,4.1-1.8,4.1-4.1v-3.8l5,1.6
				c1.5,0.5,3,0.1,4.1-0.8c0.1,0,0.1,0.1,0.2,0.1l1.4,0.9c-2.1,0.7-3.6,2.7-3.6,5v4.7c-2.8,0.2-5,2.5-5,5.4v6.4
				c-2.8-7.1-9-11.5-17.8-12.2c-4.8-0.4-8,0.1-11.1,1.7c-1-0.8-2.2-1.2-3.4-1.2H416c-3,0-5.4,2.4-5.4,5.4v38c0,3,2.4,5.4,5.4,5.4
				h9.3c3,0,5.4-2.4,5.4-5.4V65.7c0-4.5,2.4-5.1,4.2-5.1s4.2,0.5,4.2,5.1v20.8c0,3,2.4,5.4,5.4,5.4h9.2c3,0,5.4-2.4,5.4-5.4V64
				c0-1.8-0.2-3.5-0.5-5.1c0.9,1.2,2.3,2,3.9,2.1v12.8c0,11.7,6.5,18.1,18.3,18.1h4.8c3,0,5.4-2.4,5.4-5.4v-7.4c0-3-2.4-5.4-5.4-5.4
				h-2.8c-0.1,0-0.1,0-0.2,0V61h2.9c2.1,0,3.8-1.2,4.7-2.9v12.8c0,6.2,1.9,11.6,5.5,15.3c3.5,3.6,8.3,5.7,14,6
				c0.7,0,1.5,0.1,2.3,0.1c3.6,0,6.5-0.5,8.9-1.6c0.9,0.7,2.1,1.1,3.2,1.1h9.3c3,0,5.4-2.4,5.4-5.4v-38c0-3-2.4-5.4-5.4-5.4h-9.3
				c-3,0-5.4,2.4-5.4,5.4v20.8c0,4.5-2.5,5.1-4.3,5.1c-1,0-4.2,0-4.2-5.1V48.4c0-3-2.4-5.4-5.4-5.4h-9.2c-2.3,0-4.3,1.5-5.1,3.6
				c-0.7-2.1-2.7-3.6-5.1-3.6h-2.9v-4.7c0-0.6-0.1-1.2-0.3-1.8c0.7,0.6,1.5,0.9,2.4,1c1.2,0.1,2.3-0.3,3.1-1l1-0.9
				c0.6,1.4,2.1,2.4,3.7,2.4c0.1,0,0.3,0,0.4,0c1.1-0.1,2.2-0.3,3.2-0.5c1.7-0.4,4.9-1.1,8.2-3.6c1-0.8,2.9-2.3,4.6-4.8
				c0.6,0.8,1.5,1.3,2.5,1.5c-0.4,0.9-0.5,1.9-0.2,2.8l0.8,2.6c0.6,2,2.7,3.3,4.8,2.8c3-0.6,5.4-1.8,7-3.6c1.1-1.2,2-2.7,2.6-4.6
				h3.6c1.1,0,2.1-0.4,2.8-1.1c0.1,0.1,0.3,0.2,0.4,0.3c0.7,0.5,1.6,0.7,2.5,0.7l0.8,4.8c0.2,1.1,0.8,2.1,1.7,2.7
				c0.9,0.6,2.1,0.9,3.1,0.7l2.3-0.4c2.2-0.4,3.7-2.5,3.3-4.7l0,0c1,0,2-0.4,2.7-1.1c0.8-0.8,1.6-1.6,2.2-2.6
				c0.7,0.7,1.7,1.1,2.8,1.1h10.4c2.3,0,4.1-1.8,4.1-4.1v-3.2c0-2.3-1.8-4.1-4.1-4.1h-10.4c-0.7,0-1.3,0.2-1.9,0.5
				c-0.6-1-1.3-2-2.5-2.5c-0.7-0.3-1.5-0.5-2.3-0.4c-0.1,0-0.4,0-3.7,0.7c-0.3-0.7-0.8-1.4-1.5-1.9c-0.9-0.6-2-0.9-3.1-0.7l-2.3,0.4
				c-2.1,0.4-3.5,2.3-3.4,4.4c-0.5,0.1-1,0.4-1.4,0.7c-0.3-0.2-0.6-0.4-0.9-0.6c0.6-0.9,0.7-2.1,0.4-3.2l-0.8-2.6
				c-0.3-1.1-1.1-2-2.1-2.5c-1-0.5-2.2-0.6-3.3-0.2c-1.4,0.5-2.9,0.9-4.5,1.2c-1.7,0.3-4.1,0.4-7,0.4c-1.7,0-3.2,1.1-3.8,2.6
				c-0.4-0.2-0.8-0.4-1.2-0.5c-0.4-0.1-2.2-0.6-2.6-0.7c0,0,0,0,0,0c-1.1-0.3-2.4-0.2-3.4,0.5c-0.6,0.4-1,0.8-1.4,1.4
				c-0.4-0.4-0.8-0.8-1.3-1l-6-3c-0.5-0.3-1.1-0.4-1.6-0.4c-0.2-2.4-2.3-4.3-4.8-4.3h-2.7c-2.6,0-4.8,2.1-4.8,4.8c0,0.1,0,0.2,0,0.4
				c-0.2,0-0.3,0-0.4,0c-0.1,0-0.2,0-0.2,0c-1.4,0-2.8,0.7-3.6,1.8c-0.4-0.1-0.9-0.2-1.3-0.2c-1.8-0.1-3.5,0.5-4.8,1.7
				c-0.4,0.3-0.7,0.7-1,1.2l-4.2,6.2c-0.4-0.4-0.9-0.7-1.5-0.9l-0.2-0.1c0.2-0.5,0.3-1.1,0.3-1.6c0-0.1,0-0.2,0-0.4
				c0.2,0,0.3,0,0.4,0c0.1,0,0.2,0,0.2,0c2.6-0.1,4.7-2.2,4.7-4.8v-2.7c0-2.6-2.1-4.8-4.8-4.8h-2.7c-2.6,0-4.8,2.1-4.8,4.8
				c0,0.1,0,0.2,0,0.4c-0.1,0-0.2,0-0.3,0l-0.2,0c-0.6,0-1.3,0.2-1.8,0.4c-0.8-1-1.9-1.6-3.2-1.6h-2.8c-1.4,0-2.7,0.8-3.4,1.9
				c-0.8-0.9-1.9-1.5-3.1-1.5H425c-2.3,0-4.1,1.8-4.1,4.1v2.6c0,0.1,0,0.2,0,0.3c-0.1,0-0.1,0-0.2,0h-10.4c-0.2,0-0.5,0-0.7,0.1
				c0,0-0.1-0.1-0.1-0.1l-1.3-1.8c-0.7-1-1.8-1.6-3-1.7c-1.2-0.1-2.4,0.3-3.2,1.2c-1.3,1.3-2.8,2.4-4.6,3.3
				c-1.8,0.9-3.7,1.6-5.6,1.9c0,0-0.1,0-0.1,0c-0.2-1.4-1.2-2.6-2.5-3.1v-2.7c0-2.2-1.8-4.1-4.1-4.1h-13c-2.2,0-4,1.8-4.1,4
				c-0.1-0.2-0.2-0.4-0.4-0.7l-1.7-2.2c-0.7-0.9-1.8-1.5-3-1.6c-1.2-0.1-2.3,0.4-3.1,1.2c-1.7,1.7-3.8,3.3-6.2,4.5
				c-2.3,1.2-4.7,2-7.1,2.5c0.1-0.7,0.1-1.4,0.1-1.9v-1.8c0-2.3-1.8-4.1-4.1-4.1h-17.1c-2.3,0-4.1,1.8-4.1,4.1v2.6
				C321.4,21.6,323.3,23.4,325.5,23.4z M462.6,19.3L462.6,19.3L462.6,19.3L462.6,19.3z M477.3,33h-4.8c0.1-0.1,0.2-0.3,0.3-0.4
				l2.7-3.9l4.2,4.9C478.9,33.2,478.1,33,477.3,33z M486.4,24.1c0.9-0.7,1.5-1.8,1.6-3c0.4,0.7,1,1.3,1.7,1.7l6,3
				c0.1,0,0.2,0.1,0.3,0.1c-1.6,0.8-3.1,1-4.1,1.1c-0.8,0-1.7,0.4-2.3,0.9L486.4,24.1z"/>
		</g>
		<g>
			<g>
				<path class="st2" d="M73.2,14.8h-8.7c-1.2,0-2.2,1-2.2,2.2v8.7c0,1.2,1,2.2,2.2,2.2h8.7c1.2,0,2.2-1,2.2-2.2v-8.7
					C75.4,15.7,74.4,14.8,73.2,14.8z"/>
				<path class="st1" d="M73.2,125.7h-8.7c-1.2,0-2.2-1-2.2-2.2v-8.7c0-1.2,1-2.2,2.2-2.2h8.7c1.2,0,2.2,1,2.2,2.2v8.7
					C75.4,124.8,74.4,125.7,73.2,125.7z"/>
				<path class="st4" d="M122.2,76.8h-8.7c-1.2,0-2.2-1-2.2-2.2v-8.7c0-1.2,1-2.2,2.2-2.2h8.7c1.2,0,2.2,1,2.2,2.2v8.7
					C124.3,75.8,123.4,76.8,122.2,76.8z"/>
				<path class="st7" d="M15.5,76.8h8.7c1.2,0,2.2-1,2.2-2.2v-8.7c0-1.2-1-2.2-2.2-2.2h-8.7c-1.2,0-2.2,1-2.2,2.2v8.7
					C13.4,75.8,14.3,76.8,15.5,76.8z"/>
				<path class="st0" d="M105.8,47.4h-8.7c-1.2,0-2.2,1-2.2,2.2v8.7c0,1.2,1,2.2,2.2,2.2h8.7c1.2,0,2.2-1,2.2-2.2v-8.7
					C108,48.4,107.1,47.4,105.8,47.4z"/>
				<path class="st0" d="M89.5,31.1h-8.7c-1.2,0-2.2,1-2.2,2.2V42c0,1.2,1,2.2,2.2,2.2h8.7c1.2,0,2.2-1,2.2-2.2v-8.7
					C91.7,32.1,90.7,31.1,89.5,31.1z"/>
				<path class="st0" d="M40.2,93.1h-8.7c-1.2,0-2.2-1-2.2-2.2v-8.7c0-1.2,1-2.2,2.2-2.2h8.7c1.2,0,2.2,1,2.2,2.2v8.7
					C42.4,92.1,41.4,93.1,40.2,93.1z"/>
				<path class="st0" d="M48.2,96.3h8.7c1.2,0,2.2,1,2.2,2.2v8.7c0,1.2-1,2.2-2.2,2.2h-8.7c-1.2,0-2.2-1-2.2-2.2v-8.7
					C46,97.3,47,96.3,48.2,96.3z"/>
				<path class="st3" d="M73,31.4h-8.2c-1.1,0-2.1,0.9-2.1,2.1v8.2c0,1.1,0.9,2.1,2.1,2.1H73c1.1,0,2.1-0.9,2.1-2.1v-8.2
					C75,32.4,74.1,31.4,73,31.4z"/>
				<path class="st8" d="M31.8,76.4H40c1.1,0,2.1-0.9,2.1-2.1v-8.2c0-1.1-0.9-2.1-2.1-2.1h-8.2c-1.1,0-2.1,0.9-2.1,2.1v8.2
					C29.7,75.5,30.6,76.4,31.8,76.4z"/>
				<path class="st6" d="M73,109.1h-8.2c-1.1,0-2.1-0.9-2.1-2.1v-8.2c0-1.1,0.9-2.1,2.1-2.1H73c1.1,0,2.1,0.9,2.1,2.1v8.2
					C75,108.1,74.1,109.1,73,109.1z"/>
				<path class="st5" d="M105.6,76.4h-8.2c-1.1,0-2.1-0.9-2.1-2.1v-8.2c0-1.1,0.9-2.1,2.1-2.1h8.2c1.1,0,2.1,0.9,2.1,2.1v8.2
					C107.7,75.5,106.8,76.4,105.6,76.4z"/>
				<path class="st11" d="M79.1,57.7c0,0-13,5.8-13.1,5.9c-1.8,0.7-3.2,2.2-3.9,3.9c0,0.1-5.9,13-5.9,13c-0.2,1.4,0.8,2.3,2.2,2.2
					c0,0,13-5.8,13.1-5.9c1.8-0.7,3.2-2.2,3.9-3.9c0-0.1,5.9-13,5.9-13C81.5,58.5,80.5,57.5,79.1,57.7z M72.6,71.9
					c-0.4,1-1.2,1.8-2.2,2.2c-0.5,0.2-1,0.3-1.6,0.3c-2.3,0-4.2-1.9-4.2-4.2c0-0.6,0.1-1.2,0.4-1.7c0.4-1,1.2-1.8,2.2-2.2
					c0.5-0.2,1-0.3,1.6-0.3c2.3,0,4.2,1.9,4.2,4.2C73,70.8,72.9,71.4,72.6,71.9z"/>
				<path class="st0" d="M56.9,31.1h-8.7c-1.2,0-2.2,1-2.2,2.2c0,1.5,0,5.5,0,5.6c0,0,0,0,0,0c0,0.7,0,2.2-0.7,3.7
					c-0.4,0.8-0.8,1.3-1.2,1.8c-0.5,0.6-1,1.1-1.5,1.5c0,0,0,0,0,0h0c-0.3,0.2-1.1,0.8-2.1,1.1c-1.2,0.3-2.6,0.6-3.6,0.6
					c-0.5,0-1.4,0-1.7,0c-3.9,0-3.7,0-3.7,0c-1.2,0-2.2,1-2.2,2.2v8.7c0,1.2,1,2.2,2.2,2.2h8.7c1.2,0,2.2-1,2.2-2.2
					c0-1.5,0-5.5,0-5.6c0,0,0,0,0,0c0-0.7,0-2.2,0.7-3.7c0.4-0.8,0.8-1.3,1.2-1.8c0.5-0.6,1-1.1,1.5-1.5c0,0,0,0,0,0h0
					c0.3-0.2,1.1-0.8,2.1-1.1c1.2-0.3,2.6-0.6,3.6-0.6c0.5,0,1.4,0,1.7,0c3.9,0,3.7,0,3.7,0c1.2,0,2.2-1,2.2-2.2v-8.7
					C59.1,32.1,58.1,31.1,56.9,31.1z"/>
				<path class="st0" d="M80.5,109.2h8.7c1.2,0,2.2-1,2.2-2.2c0-1.5,0-5.5,0-5.6c0,0,0,0,0,0c0-0.7,0-2.2,0.7-3.7
					c0.4-0.8,0.8-1.3,1.2-1.8c0.5-0.6,1-1.1,1.5-1.5c0,0,0,0,0,0h0c0.3-0.2,1.1-0.8,2.1-1.1c1.2-0.3,2.6-0.6,3.6-0.6
					c0.5,0,1.4,0,1.7,0c3.9,0,3.7,0,3.7,0c1.2,0,2.2-1,2.2-2.2v-8.7c0-1.2-1-2.2-2.2-2.2h-8.7c-1.2,0-2.2,1-2.2,2.2
					c0,1.5,0,5.5,0,5.6c0,0,0,0,0,0c0,0.7,0,2.2-0.7,3.7c-0.4,0.8-0.8,1.3-1.2,1.8c-0.5,0.6-1,1.1-1.5,1.5c0,0,0,0,0,0h0
					c-0.3,0.2-1.1,0.8-2.1,1.1c-1.2,0.3-2.6,0.6-3.6,0.6c-0.5,0-1.4,0-1.7,0c-3.9,0-3.7,0-3.7,0c-1.2,0-2.2,1-2.2,2.2v8.7
					C78.3,108.2,79.3,109.2,80.5,109.2z"/>
			</g>
			<g>
				<path class="st2" d="M207.2,104.5h-16.1c-2.2,0-4,1.8-4,4v16.1c0,2.2,1.8,4,4,4h16.1c2.2,0,4-1.8,4-4v-16.1
					C211.2,106.3,209.4,104.5,207.2,104.5z"/>
				<path class="st4" d="M233.5,104.5h-16.1c-2.2,0-4,1.8-4,4v16.1c0,2.2,1.8,4,4,4h16.1c2.2,0,4-1.8,4-4v-16.1
					C237.6,106.3,235.8,104.5,233.5,104.5z"/>
				<path class="st1" d="M260.1,104.5h-16.1c-2.2,0-4,1.8-4,4v16.1c0,2.2,1.8,4,4,4h16.1c2.2,0,4-1.8,4-4v-16.1
					C264.1,106.3,262.3,104.5,260.1,104.5z"/>
				<path class="st7" d="M286.5,104.5h-16.1c-2.2,0-4,1.8-4,4v16.1c0,2.2,1.8,4,4,4h16.1c2.2,0,4-1.8,4-4v-16.1
					C290.5,106.3,288.7,104.5,286.5,104.5z"/>
				<path class="st9" d="M197.5,124.2v0.7h-2.4V110c-0.2,1.6-0.4,2.9-0.7,4.1v10.8H192v-6.8c-0.3,0.5-0.5,1-0.8,1.3l-0.6-3.5
					c1.1-2,1.8-4.4,2.2-7.2l2.3,0.3h11.2v15.9h-2.5v-0.7H197.5z M203.9,122.2v-11.1h-6.4v11.1H203.9z M200.1,121.4h-1.9v-5.2h1.4
					v-1.3h-1.7v-2h1.7v-1.4h2.2v1.4h1.7v2h-1.7v1.3h1.4v5.2H200.1z M200.1,119.4h1.3v-1.5h-1.3V119.4z"/>
				<path class="st9" d="M222.8,122.4c0.1,0,0.2,0,0.2-0.1c0.1-0.1,0.1-0.2,0.2-0.4c0-0.2,0.1-0.6,0.1-1.1c0-0.5,0-1.1,0-1.9h-1.6
					c-0.2,1.4-0.5,2.5-1,3.5c-0.4,1-1,1.9-1.8,2.7l-1.5-2.2c0.7-0.8,1.2-1.7,1.5-2.9c0.3-1.2,0.5-2.6,0.6-4.5h-1.4v-6.4h7.6v6.4H222
					c0,0.1,0,0.2,0,0.3c0,0.1,0,0.3,0,0.4c0,0.1,0,0.2,0,0.3h3.8c0,1.4,0,2.5,0,3.3c0,0.9-0.1,1.6-0.1,2.3c-0.1,0.6-0.1,1.1-0.2,1.5
					c-0.1,0.3-0.2,0.6-0.4,0.8s-0.4,0.3-0.5,0.3c-0.2,0-0.4,0.1-0.8,0.1c-0.7,0-1.6,0-2.6-0.1l-0.1-2.4
					C222,122.4,222.6,122.4,222.8,122.4z M223.4,113.5v-2.2h-2.8v2.2H223.4z M226.7,120.9v-11.3h2.3v11.3H226.7z M230.3,108.9h2.5
					v12.7c0,0.5,0,1,0,1.3c0,0.3-0.1,0.6-0.1,0.9c-0.1,0.3-0.1,0.5-0.2,0.6c-0.1,0.1-0.2,0.2-0.5,0.3c-0.2,0.1-0.4,0.1-0.7,0.2
					c-0.2,0-0.6,0-1,0c-0.3,0-1.1,0-2.4-0.1l-0.1-2.4c0.3,0,0.5,0,0.9,0c0.3,0,0.5,0,0.7,0c0.2,0,0.3,0,0.4,0c0.3,0,0.4,0,0.5-0.1
					c0.1-0.1,0.1-0.3,0.1-0.6V108.9z"/>
				<path class="st9" d="M246.3,124.8c-0.2,0-0.7,0-1.6-0.1l-0.1-2.2c0.7,0.1,1.1,0.1,1.3,0.1c0.1,0,0.2,0,0.2-0.1
					c0-0.1,0-0.3,0-0.6v-2.2c-0.6,0.1-1.1,0.2-1.5,0.3l-0.1-2.4c0.5-0.1,1.1-0.2,1.6-0.3v-3.4h-1.6v-2.3h1.6v-2.8h2.5v2.8h1.3v2.3
					h-1.3v2.8c0.4-0.1,0.8-0.3,1.2-0.4l0.3,2.4c-0.4,0.1-0.9,0.3-1.5,0.5v2.5c0,0.5,0,1,0,1.3c0,0.3-0.1,0.6-0.1,0.9
					c-0.1,0.3-0.1,0.5-0.2,0.6c-0.1,0.1-0.2,0.2-0.4,0.3c-0.2,0.1-0.4,0.1-0.6,0.1S246.7,124.8,246.3,124.8z M253.7,113.5
					c0.1,0,0.3,0,0.6,0c0.3,0,0.5,0,0.6,0c0.2,0,0.4,0,0.6,0c0.2,0,0.5,0,0.6,0c0.2,0,0.4,0,0.4,0c0.1,0,0.2,0,0.3-0.1
					c0.1,0,0.2-0.1,0.2-0.1c0,0,0.1-0.2,0.1-0.3c0-0.2,0.1-0.3,0.1-0.5c0-0.2,0-0.4,0-0.8l2.5,0.2c0,0.9-0.1,1.5-0.1,2
					c-0.1,0.5-0.2,0.8-0.4,1.1c-0.2,0.3-0.5,0.4-0.8,0.5c-0.3,0.1-0.7,0.1-1.3,0.1h-2h-2c-1.2,0-1.9-0.1-2.2-0.4
					c-0.3-0.2-0.5-0.8-0.5-1.7v-4.8h2.6v1.5c2-0.4,3.9-0.9,5.7-1.6l0.8,2.1c-2,0.7-4.2,1.3-6.5,1.7v0.3c0,0.3,0,0.5,0.1,0.6
					C253.2,113.5,253.4,113.5,253.7,113.5z M253.2,124.2v0.6h-2.6v-8.4h8.9v8.4h-2.6v-0.6H253.2z M256.8,119.4v-0.9h-3.6v0.9H256.8z
					 M253.2,122.1h3.6v-0.9h-3.6V122.1z"/>
				<path class="st9" d="M271.1,112.7h4v4c0.2,0.3,0.5,0.5,0.9,0.7v-5.7h3l0.1-0.4h-4v-0.6l-1.2,1.8c-0.9-0.6-1.9-1.3-2.9-1.9
					l1.3-1.9c1,0.6,2,1.2,2.9,1.9v-1.1h2.1c-0.3-0.4-0.5-0.7-0.7-0.9l2.4-0.3c0.3,0.4,0.6,0.8,0.9,1.2h1.9c0.3-0.5,0.6-0.9,0.8-1.2
					l2.4,0.2c-0.1,0.1-0.3,0.4-0.6,1h2v1.8H282l-0.2,0.4h3.9v5.8h-7.1h-2.2c0.9,0.2,2.8,0.4,5.7,0.4h4.4l-0.1,1.8h-2.2v0.4h2.2v1.9
					h-2.2v0.2c0,0.5,0,0.9,0,1.1c0,0.3-0.1,0.5-0.1,0.7c-0.1,0.2-0.2,0.4-0.3,0.5c-0.1,0.1-0.3,0.2-0.5,0.2
					c-0.2,0.1-0.5,0.1-0.8,0.1c-0.3,0-0.7,0-1.2,0c-0.5,0-1.4,0-3-0.1l-0.1-2.1c1.4,0.1,2.2,0.1,2.6,0.1c0.3,0,0.5,0,0.6-0.1
					c0.1-0.1,0.1-0.3,0.1-0.6V122h-5.5c0.5,0.3,1.1,0.6,1.7,1l-1.1,2c-1.2-0.7-2.3-1.4-3.5-2l0.6-1h-2.4v-2h10.3v-0.4
					c-2.2,0-3.8-0.1-4.9-0.3c-1.1-0.2-1.9-0.4-2.4-0.9c-0.7,0.5-1.5,0.9-2.3,1.3l-1-2.2c0.6-0.3,1.2-0.6,1.8-0.9v-1.9h-1.5V112.7z
					 M283.1,113.4V113h-4.6v0.4H283.1z M278.5,114.7h4.6v-0.4h-4.6V114.7z M278.5,116.1h4.6v-0.4h-4.6V116.1z"/>
			</g>
			<g>
				<path class="st10" d="M314.7,112.4H301v-3.8h14.1c0.1-1,0.5-1.8,1.1-2.4c0.7-0.7,1.5-1,2.4-1c1,0,1.8,0.4,2.5,1.1
					c0.7,0.7,1,1.6,1,2.6c0,1-0.3,1.9-1,2.6c-0.7,0.7-1.5,1.1-2.4,1.1c-0.4,4.7-1.9,8.3-4.5,10.7c-2.5,2.4-6.2,3.8-11,4.3l-0.7-3.7
					c4-0.4,6.9-1.5,8.8-3.2C313.2,119,314.4,116.2,314.7,112.4z M319.7,110.1c0.3-0.3,0.4-0.7,0.4-1.1c0-0.4-0.1-0.8-0.4-1.1
					c-0.3-0.3-0.6-0.5-1.1-0.5s-0.8,0.2-1.1,0.5c-0.3,0.3-0.4,0.7-0.4,1.1c0,0.4,0.1,0.8,0.4,1.1c0.3,0.3,0.7,0.5,1.1,0.5
					S319.4,110.4,319.7,110.1z"/>
				<path class="st10" d="M329.8,126.7h-4v-18.5h18.8v18.5H329.8z M329.8,123.1h10.8v-11.3h-10.8V123.1z"/>
				<path class="st10" d="M363.3,113.2h-6.9c-1,2.5-2.5,4.7-4.5,6.8l-2.7-2.4c1.3-1.4,2.4-3,3.3-4.9c0.9-1.9,1.4-3.7,1.6-5.6
					l3.7,0.2c-0.1,0.8-0.2,1.6-0.4,2.4h7.2c-0.4-0.9-0.8-1.7-1.2-2.5l2.2-1.2c0.6,1.3,1.2,2.5,1.8,3.7v0.4c0,5.9-1.2,10.3-3.7,13
					c-2.5,2.8-6.5,4.4-12,4.9l-0.6-3.6c4.1-0.4,7.1-1.5,9-3.1C361.9,119.6,363,116.9,363.3,113.2z M371,109.3l-2.2,1.1
					c-0.8-1.7-1.5-2.9-1.8-3.7l2.2-1.2C369.9,107,370.5,108.2,371,109.3z"/>
				<path class="st10" d="M374.8,114.2h18.6v0.7c0,4.1-1.2,7.2-3.6,9.3c-2.4,2.1-6.1,3.3-11.2,3.6l-0.6-3.6c3.3-0.2,5.8-0.7,7.7-1.8
					c1.8-1,3-2.5,3.5-4.6h-14.4V114.2z M376.5,111.3v-3.6H392v3.6H376.5z"/>
				<path class="st10" d="M399.6,125.6l0.2-4c5.9,0.2,12,0.9,18.2,2l-0.4,3.9C411.3,126.5,405.3,125.8,399.6,125.6z M400.5,111.3
					l0.2-3.8c5.4,0.2,10.9,0.7,16.5,1.5l-0.4,3.8C411.2,112,405.7,111.5,400.5,111.3z M401.6,118.3l0.3-3.9
					c4.5,0.2,9.1,0.7,13.8,1.6l-0.5,3.9C410.5,119,406,118.5,401.6,118.3z"/>
				<path class="st10" d="M424.4,111.1l1.8-3.6c2.3,1.1,4.7,2.4,7.3,3.8l-1.9,3.6C429,113.5,426.6,112.2,424.4,111.1z M439.9,109.9
					l3.6,0.8c-0.8,5-2.7,8.8-5.6,11.5c-2.9,2.7-7,4.2-12.3,4.7l-0.6-3.9c4.5-0.5,7.9-1.7,10.2-3.8
					C437.4,117.2,439,114.1,439.9,109.9z"/>
				<path class="st10" d="M461.4,113.2h-6.9c-1,2.5-2.5,4.7-4.5,6.8l-2.7-2.4c1.3-1.4,2.4-3,3.3-4.9c0.9-1.9,1.4-3.7,1.6-5.6
					l3.7,0.2c-0.1,0.8-0.2,1.6-0.4,2.4h7.2c-0.4-0.9-0.8-1.7-1.2-2.5l2.2-1.2c0.6,1.3,1.2,2.5,1.8,3.7v0.4c0,5.9-1.2,10.3-3.7,13
					c-2.5,2.8-6.5,4.4-12,4.9l-0.6-3.6c4.1-0.4,7.1-1.5,9-3.1C460,119.6,461,116.9,461.4,113.2z M469.1,109.3l-2.2,1.1
					c-0.8-1.7-1.5-2.9-1.8-3.7l2.2-1.2C468,107,468.6,108.2,469.1,109.3z"/>
				<path class="st10" d="M474.7,111.7v-3.7h15.2v3.7c-1,2.4-2.5,4.7-4.3,6.9c2.1,2,4.2,4,6.3,6.2l-2.6,2.7
					c-2.4-2.5-4.4-4.5-6.2-6.2c-2.6,2.5-5.6,4.6-8.8,6.1l-1.7-3.3c5.9-3,10.2-7.2,13-12.4H474.7z"/>
				<path class="st10" d="M511.4,112.7h-7.1c-1,2.5-2.5,4.8-4.6,7l-2.7-2.4c1.3-1.4,2.4-3,3.3-4.9c0.9-1.9,1.4-3.7,1.6-5.6l3.7,0.2
					c-0.1,0.8-0.2,1.5-0.3,2.1h10.1v0.7c0,5.9-1.2,10.2-3.7,13s-6.5,4.4-12,4.9l-0.6-3.6c4.2-0.4,7.2-1.5,9-3.2
					C510,119.2,511.1,116.5,511.4,112.7z"/>
				<path class="st10" d="M521.6,119.4v-4h19.5v4H521.6z"/>
				<path class="st10" d="M549.1,107.4h3.8v5.1c0,3.4-0.2,6.1-0.5,8s-0.9,3.4-1.7,4.4c-0.8,1-2,1.9-3.6,2.8l-2.1-3.4
					c0.6-0.4,1.1-0.7,1.5-1c0.4-0.3,0.7-0.6,1.1-1.1c0.3-0.4,0.6-0.9,0.7-1.4c0.2-0.5,0.3-1.1,0.4-1.9c0.1-0.8,0.2-1.7,0.2-2.7
					c0-1,0-2.2,0-3.7V107.4z M559.3,123.1c1.2-0.4,2.2-1.2,2.8-2.4c0.6-1.2,1-2.9,1.3-5.3l3.6,0.5c-0.3,4-1.4,6.8-3.1,8.7
					c-1.8,1.8-4.4,2.7-7.8,2.7h-0.6v-20h3.9V123.1z"/>
			</g>
			<g>
				<path class="st10" d="M285.2,88.7c5.6,0.5,10.2-0.7,12.6-3.8c0-0.1,0.1,0,0.1,0v1.5c0,0.9,0.8,1.7,1.7,1.7h9.3
					c0.9,0,1.7-0.8,1.7-1.7V34.9c0-0.9-0.8-1.7-1.7-1.7h-9.3c-0.9,0-1.7,0.8-1.7,1.7v15.3c0,0.1-0.1,0.2-0.2,0.1
					c-3.6-2.7-8.4-2.9-13.6-2.4c-9.1,1-15.7,6.2-16.3,19.5C267.3,80.5,275.1,87.8,285.2,88.7z M288.4,58c4.8,0,9,3.6,9,10.2
					c0,6.6-4.2,10.2-9,10.2c-4.7,0-9-3.7-9-10.3S283.6,58,288.4,58z"/>
				<path class="st10" d="M332.6,87c0.2,0.7,0.9,1.1,1.6,1.1h13.2c0.7,0,1.4-0.5,1.6-1.1L361.9,49c0.4-1.1-0.4-2.3-1.6-2.3h-9.2
					c-0.8,0-1.4,0.5-1.6,1.2l-8.3,27.4c-0.1,0.3-0.5,0.3-0.6,0L332.2,48c-0.2-0.7-0.9-1.2-1.6-1.2h-9.3c-1.2,0-2,1.2-1.6,2.3
					L332.6,87z"/>
				<path class="st10" d="M387,88.7c9.2,0,14.9-5.3,17.7-12.1c0.5-1.2-0.4-2.5-1.6-2.5l-8.8,0.3c-0.6,0-1.2,0.3-1.5,0.9
					c-1.1,1.8-3,3.2-6.1,3.2c-3.9,0-7.2-2.3-7.8-7.4c0-0.3,0.2-0.6,0.5-0.6l25.3-0.3c0.9,0,1.7-0.7,1.8-1.7c0-0.7,0.1-1.4,0.1-2
					c0-12.6-7.3-20.3-19.4-20.3c-12.3,0-20,8.2-20,21.3C367,80.6,374.9,88.7,387,88.7z M378.8,61.9c0.9-4.3,4-6.6,8-6.6
					c4.1,0,7.6,2.4,7.8,6.7c0,0.2-0.2,0.4-0.4,0.4h-15C379,62.4,378.8,62.2,378.8,61.9z"/>
				<path class="st10" d="M594.9,88.7c9.2,0,14.9-5.3,17.7-12.1c0.5-1.2-0.4-2.5-1.6-2.5l-8.8,0.3c-0.6,0-1.2,0.3-1.5,0.9
					c-1.1,1.8-3,3.2-6.1,3.2c-3.9,0-7.2-2.3-7.8-7.4c0-0.3,0.2-0.6,0.5-0.6l25.3-0.3c0.9,0,1.7-0.7,1.8-1.7c0-0.7,0.1-1.4,0.1-2
					c0-12.6-7.3-20.3-19.4-20.3c-12.3,0-20,8.2-20,21.3C574.8,80.6,582.7,88.7,594.9,88.7z M586.7,61.9c0.9-4.3,4-6.6,8-6.6
					c4.1,0,7.6,2.4,7.8,6.7c0,0.2-0.2,0.4-0.4,0.4h-15C586.8,62.4,586.6,62.2,586.7,61.9z"/>
				<path class="st10" d="M416,88.1h9.3c0.9,0,1.7-0.8,1.7-1.7V65.7c0-5.6,3.1-8.7,7.9-8.7c4.8,0,7.9,3.1,7.9,8.7v20.8
					c0,0.9,0.8,1.7,1.7,1.7h9.2c0.9,0,1.7-0.8,1.7-1.7V64c0-11.1-6.3-16.9-15.9-17.6c-5.6-0.4-8.4,0.3-12.4,3.4
					c-0.1,0-0.2,0-0.2-0.1v-1.2c0-0.9-0.8-1.7-1.7-1.7H416c-0.9,0-1.7,0.8-1.7,1.7v38C414.3,87.4,415.1,88.1,416,88.1z"/>
				<path class="st10" d="M462.9,57.3h3.2c0.1,0,0.2,0.1,0.2,0.2v16.3c0,10.8,6,14.4,14.6,14.4h4.8c0.9,0,1.7-0.8,1.7-1.7v-7.4
					c0-0.9-0.8-1.7-1.7-1.7h-2.8c-2.8,0-3.9-1-3.9-3.5V57.4c0-0.1,0.1-0.2,0.2-0.2h6.5c0.9,0,1.7-0.8,1.7-1.7v-7.2
					c0-0.9-0.8-1.7-1.7-1.7h-6.5c-0.1,0-0.2-0.1-0.2-0.2v-8.2c0-0.9-0.8-1.7-1.7-1.7H468c-0.9,0-1.7,0.8-1.7,1.7v8.2
					c0,0.1-0.1,0.2-0.2,0.2h-3.2c-0.9,0-1.7,0.8-1.7,1.7v7.2C461.2,56.5,462,57.3,462.9,57.3z"/>
				<path class="st10" d="M510,88.6c5.3,0.3,9.6-0.3,12.4-3.2c0.1-0.1,0.2,0,0.2,0.1v1c0,0.9,0.8,1.7,1.7,1.7h9.3
					c0.9,0,1.7-0.8,1.7-1.7v-38c0-0.9-0.8-1.7-1.7-1.7h-9.3c-0.9,0-1.7,0.8-1.7,1.7v20.8c0,5.6-3.1,8.7-8,8.7
					c-4.7,0-7.9-3.1-7.9-8.7V48.4c0-0.9-0.8-1.7-1.7-1.7h-9.2c-0.9,0-1.7,0.8-1.7,1.7v22.5C494,82,500.7,88.1,510,88.6z"/>
				<path class="st10" d="M546.1,88.1h9.3c0.9,0,1.7-0.8,1.7-1.7V68.9c0-7.1,3.5-9.2,9.5-9.2h1.8c0.9,0,1.7-0.8,1.7-1.7v-9.5
					c-0.1-1-0.8-1.4-1.6-1.4c-4.5-0.1-8.7-0.4-11.2,3.2c0,0.1-0.2,0-0.2,0v-1.8c0-0.9-0.8-1.7-1.7-1.7h-9.3c-0.9,0-1.7,0.8-1.7,1.7
					v38C544.4,87.4,545.1,88.1,546.1,88.1z"/>
				<path class="st10" d="M153.6,31.8h-8.3c-0.9,0-1.7,0.8-1.7,1.7v49.4c0,0.9,0.8,1.7,1.7,1.7h8.3c0.9,0,1.7-0.8,1.7-1.7V33.5
					C155.3,32.5,154.5,31.8,153.6,31.8z"/>
				<path class="st10" d="M202.5,31.8h-37.1c-0.9,0-1.6,0.7-1.6,1.6v8.5c0,0.9,0.7,1.6,1.6,1.6h12.2c0.3,0,0.5,0.2,0.5,0.5V83
					c0,0.9,0.7,1.6,1.6,1.6h8.5c0.9,0,1.6-0.7,1.6-1.6V43.9c0-0.3,0.2-0.5,0.5-0.5h12.2c0.9,0,1.6-0.7,1.6-1.6v-8.5
					C204,32.5,203.3,31.8,202.5,31.8z"/>
				<path class="st10" d="M613.2,96.7H270c-0.2,0-0.4-0.1-0.5-0.3l-23.3-64.6c-0.3-0.7-0.9-1.2-1.7-1.2h-12.6
					c-0.8,0-1.5,0.5-1.7,1.2l-18.1,49.9c-0.4,1.2,0.5,2.4,1.7,2.4h9.8c0.8,0,1.5-0.5,1.7-1.2L228,75c0.1-0.2,0.3-0.3,0.5-0.3h19.3
					c0.2,0,0.4,0.1,0.5,0.3l8.1,23c0.3,0.7,0.9,1.2,1.7,1.2h355.2c0.7,0,1.3-0.6,1.3-1.4C614.5,97.2,613.9,96.7,613.2,96.7z
					 M244.7,64.9h-13c-0.4,0-0.6-0.4-0.5-0.7l6.5-18.9c0.2-0.5,0.9-0.5,1,0l6.6,18.9C245.3,64.5,245.1,64.9,244.7,64.9z"/>
			</g>
			<g>
				<path class="st1" d="M325.5,19.7c4.5,0,8.9,0,13.4,0c0.1,0,0.2,0.1,0.2,0.2c-0.1,0.9-0.2,1.4-0.7,2.2c-0.2,0.3-0.5,0.6-0.7,0.8
					c-0.3,0.3-1.3,1.2-1.8,1.7c-0.2,0.1-0.2,0.4,0,0.5c0.6,0.7,1.3,1.3,1.9,2c0.1,0.2,0.4,0.2,0.6,0.1c1.2-0.9,1.6-1.3,2.7-2.6
					c1.1-1.3,1.5-2.7,1.8-4.2c0.1-0.7,0.1-1.9,0.1-2v-1.8c0-0.2-0.2-0.4-0.4-0.4h-17.1c-0.2,0-0.4,0.2-0.4,0.4v2.6
					C325.1,19.5,325.3,19.7,325.5,19.7z"/>
				<path class="st1" d="M330.9,22c0,2.1-0.1,4.1-0.4,5.3c-0.3,1.3-0.7,2.3-1.2,3.1c-0.5,0.7-1.3,1.3-2.3,1.9
					c-0.2,0.1-0.2,0.4-0.1,0.5l1.4,2.4c0.1,0.2,0.4,0.2,0.5,0.1c1.4-0.8,2.4-1.7,3.2-2.7c0.8-1,1.5-2.4,1.8-4.1
					c0.3-1.8,0.5-4,0.5-6.6c0-0.2-0.2-0.4-0.4-0.4h-2.7C331,21.6,330.9,21.8,330.9,22z"/>
				<path class="st1" d="M425,19.7c4.5,0,8.9,0,13.4,0c0.1,0,0.2,0.1,0.2,0.2c-0.1,0.9-0.2,1.4-0.7,2.2c-0.2,0.3-0.5,0.6-0.7,0.8
					c-0.3,0.3-1.3,1.2-1.8,1.7c-0.2,0.1-0.2,0.4,0,0.5c0.6,0.7,1.3,1.3,1.9,2c0.1,0.2,0.4,0.2,0.6,0.1c1.2-0.9,1.6-1.3,2.7-2.6
					c1.1-1.3,1.5-2.7,1.8-4.2c0.1-0.7,0.1-1.9,0.1-2v-1.8c0-0.2-0.2-0.4-0.4-0.4H425c-0.2,0-0.4,0.2-0.4,0.4v2.6
					C424.6,19.5,424.8,19.7,425,19.7z"/>
				<path class="st1" d="M430.4,22c0,2.1-0.1,4.1-0.4,5.3c-0.3,1.3-0.7,2.3-1.2,3.1c-0.5,0.7-1.3,1.3-2.3,1.9
					c-0.2,0.1-0.2,0.4-0.1,0.5l1.4,2.4c0.1,0.2,0.4,0.2,0.5,0.1c1.4-0.8,2.4-1.7,3.2-2.7c0.8-1,1.5-2.4,1.8-4.1
					c0.3-1.8,0.5-4,0.5-6.6c0-0.2-0.2-0.4-0.4-0.4h-2.7C430.5,21.6,430.4,21.8,430.4,22z"/>
				<path class="st1" d="M512.2,27l7.6,0c0.1,0,0.1,0,0.1,0.1c-0.2,1.5-0.7,2.6-1.4,3.3c-0.7,0.6-1.8,1.2-3.3,1.5
					c-0.2,0.1-0.3,0.3-0.3,0.5l0.8,2.6c0.1,0.2,0.3,0.3,0.5,0.3c2.3-0.5,4-1.3,5.1-2.5c1.2-1.2,1.9-3.1,2.2-5.6c0,0,0-0.1,0.1-0.1
					l6.5,0c0.2,0,0.4-0.2,0.4-0.4v-2.7c0-0.2-0.2-0.4-0.4-0.4h-6.3c0,0-0.1,0-0.1-0.1v-3.5c0,0,0-0.1,0.1-0.1
					c1.6-0.3,3.2-0.7,4.7-1.3c0.2-0.1,0.3-0.3,0.2-0.5l-0.8-2.6c-0.1-0.2-0.3-0.3-0.5-0.3c-1.7,0.6-3.4,1.1-5.3,1.4
					c-1.9,0.3-4.4,0.4-7.6,0.4c-0.2,0-0.4,0.2-0.4,0.4V20c0,0.2,0.2,0.4,0.4,0.4c2.2,0,4-0.1,5.4-0.2c0.1,0,0.1,0,0.1,0.1l0,3.1
					c0,0,0,0.1-0.1,0.1h-7.8c-0.2,0-0.4,0.2-0.4,0.4v2.7C511.8,26.8,512,27,512.2,27z"/>
				<path class="st1" d="M410.4,27.4h10.4c0.2,0,0.4-0.2,0.4-0.4v-3.2c0-0.2-0.2-0.4-0.4-0.4h-10.4c-0.2,0-0.4,0.2-0.4,0.4V27
					C410,27.2,410.2,27.4,410.4,27.4z"/>
				<path class="st1" d="M554.7,27.4h10.4c0.2,0,0.4-0.2,0.4-0.4v-3.2c0-0.2-0.2-0.4-0.4-0.4h-10.4c-0.2,0-0.4,0.2-0.4,0.4V27
					C554.3,27.2,554.5,27.4,554.7,27.4z"/>
				<path class="st1" d="M548.4,20.8c-0.2,0-4.6,1-6.8,1.5c0,0-0.1,0-0.1-0.1l-0.5-2.9c0-0.2-0.3-0.4-0.5-0.4l-2.3,0.4
					c-0.2,0-0.4,0.3-0.3,0.5l0.5,3c0,0.1,0,0.1-0.1,0.1l-3.1,0.7c-0.2,0.1-0.4,0.3-0.3,0.5l0.4,2.3c0,0.2,0.3,0.4,0.5,0.3l3.1-0.7
					c0,0,0.1,0,0.1,0.1l1.4,8.6c0,0.2,0.3,0.4,0.5,0.4l2.3-0.4c0.2,0,0.4-0.3,0.3-0.5l-1.4-8.6c0-0.1,0-0.2,0.1-0.2
					c1.4-0.3,2.8-0.7,4.2-1c0.1,0,0.1,0,0.1,0.1c0,0.3-0.1,0.7-0.2,1.2c-0.2,0.6-0.6,1-0.8,1.3c-0.2,0.2-0.4,0.4-0.7,0.7
					c-0.2,0.2-0.2,0.5,0,0.7l2.1,1.5c0.1,0.1,0.4,0.1,0.5,0c0.6-0.6,1.4-1.5,2.1-2.7c0.5-1.1,0.8-2.1,0.9-2.8c0-0.2,0.1-0.4,0.1-0.7
					c0-0.1,0-0.5-0.5-1.5c-0.5-1.1-0.8-1.2-1-1.3C548.8,20.9,548.6,20.8,548.4,20.8z"/>
				<path class="st1" d="M462.9,26.2L452,22.6c-0.1,0-0.2-0.1-0.2-0.2v-6.1c0-0.2-0.2-0.4-0.4-0.4h-2.8c-0.2,0-0.4,0.2-0.4,0.4v18.9
					c0,0.2,0.2,0.4,0.4,0.4h2.8c0.2,0,0.4-0.2,0.4-0.4v-8.7c0-0.1,0.1-0.1,0.1-0.1l9.7,3.2c0.3,0.1,0.6-0.1,0.7-0.3l0.8-2.4
					C463.3,26.6,463.2,26.3,462.9,26.2z"/>
				<path class="st1" d="M487.6,31.1l-10.2-12c-1-1.2-2.9-1.3-4.1-0.2c-0.2,0.2-0.3,0.3-0.4,0.5l-6.1,9.1c-0.2,0.3-0.1,0.6,0.2,0.8
					l2.1,1.4c0.3,0.2,0.6,0.1,0.8-0.2l5.2-7.6c0.1-0.1,0.3-0.2,0.4,0l9.3,10.8c0.2,0.2,0.6,0.3,0.8,0l2.1-1.7
					C487.7,31.7,487.8,31.4,487.6,31.1z"/>
				<path class="st1" d="M505.9,18.2c-0.2-0.1-0.5,0.1-0.5,0.3c-0.2,1.4-0.8,3.8-2.5,6.3c-1.8,2.5-3.9,3.7-5,4.3
					c-2.3,1.2-4.4,1.5-5.7,1.5c-0.2,0-0.4,0.2-0.4,0.5c0.1,1,0.3,1.9,0.4,2.9c0,0.2,0.2,0.4,0.4,0.3c0.7-0.1,1.7-0.2,2.8-0.5
					c1.7-0.4,4.2-1,6.9-3c0.6-0.4,2.7-2,4.4-4.8c0.2-0.3,1-1.6,1.6-3.4c0.4-1.2,0.7-2.3,0.8-3.2c0-0.2-0.1-0.4-0.3-0.5
					C508.3,18.9,506.4,18.4,505.9,18.2z"/>
				<path class="st1" d="M346.9,27.5c0,0.2,0.2,0.4,0.4,0.3c2.4-0.4,4.9-1.2,7.5-2.3c0,0,0.1,0,0.1,0.1v9.6c0,0.2,0.2,0.4,0.4,0.4
					h3.1c0.2,0,0.4-0.2,0.4-0.4V23.6c0,0,0-0.1,0.1-0.1c2.2-1.3,4.2-2.9,5.9-4.7c0.1-0.1,0.1-0.4,0-0.5l-1.7-2.2
					c-0.1-0.2-0.4-0.2-0.6,0c-2,2-4.3,3.8-7.1,5.2c-2.8,1.5-5.7,2.4-8.6,2.9c-0.2,0-0.3,0.2-0.3,0.4L346.9,27.5z"/>
				<path class="st1" d="M369.2,23.2v2.9c0,0.2,0.1,0.3,0.3,0.3h7.9c0,0,0.1,0,0.1,0.1c0,1.7-0.4,3.1-1.2,4c-0.8,0.9-2,1.6-3.8,2
					c-0.2,0-0.3,0.2-0.2,0.4l0.8,2.9c0,0.2,0.2,0.3,0.4,0.2c2.6-0.6,4.5-1.7,5.7-3.2c1.3-1.6,1.9-3.7,2-6.3c0,0,0-0.1,0.1-0.1h6.5
					c0.2,0,0.3-0.1,0.3-0.3v-2.9c0-0.2-0.1-0.3-0.3-0.3h-18.2C369.4,22.9,369.2,23,369.2,23.2z"/>
				<path class="st1" d="M372.2,19.9h13c0.2,0,0.4-0.2,0.4-0.4v-2.7c0-0.2-0.2-0.4-0.4-0.4h-13c-0.2,0-0.4,0.2-0.4,0.4v2.7
					C371.8,19.7,372,19.9,372.2,19.9z"/>
				<path class="st1" d="M392.5,28.9c0,0.2,0.2,0.4,0.5,0.3c1.9-0.4,3.8-0.9,5.6-1.7c0,0,0.1,0,0.1,0.1v7.2c0,0.2,0.2,0.4,0.4,0.4
					h2.5c0.2,0,0.4-0.2,0.4-0.4v-8.9c0,0,0-0.1,0-0.1c1.7-1,3.2-2.2,4.5-3.6c0.1-0.1,0.2-0.4,0-0.5l-1.3-1.8c-0.1-0.2-0.4-0.2-0.6,0
					c-1.5,1.6-3.4,2.9-5.5,4c-2.2,1.1-4.4,1.9-6.7,2.3c-0.2,0-0.4,0.2-0.3,0.5L392.5,28.9z"/>
				<path class="st7" d="M459.9,16.7L459.9,16.7c-0.1,0.1-0.3,0.2-0.5,0.3c-0.4,0.1-0.8,0.2-1,0.2c-0.2,0-0.4,0-0.5,0
					c-0.6,0-0.9,0-1,0c0,0-0.1,0-0.2,0v0c-0.6,0-1.1,0.5-1.1,1.1v2.7c0,0.6,0.5,1.1,1.1,1.1h2.7c0.6,0,1.1-0.5,1.1-1.1
					c0-0.5,0-1.7,0-1.8c0-0.2,0-0.6,0.2-1c0.1-0.2,0.2-0.3,0.3-0.5c0-0.1,0.1-0.1,0.2-0.2l-1-1C460,16.6,459.9,16.6,459.9,16.7z"/>
				<path class="st4" d="M461.3,17.3L461.3,17.3c0.1-0.1,0.3-0.2,0.5-0.3c0.4-0.1,0.8-0.2,1-0.2c0.1,0,0.4,0,0.5,0c0.6,0,0.9,0,1,0
					c0,0,0.1,0,0.2,0v0c0.6,0,1.1-0.5,1.1-1.1v-2.7c0-0.6-0.5-1.1-1.1-1.1h-2.7c-0.6,0-1.1,0.5-1.1,1.1c0,0.5,0,1.7,0,1.8
					c0,0.2,0,0.6-0.2,1c-0.1,0.2-0.2,0.3-0.3,0.5c-0.1,0.1-0.1,0.2-0.2,0.2l1,1C461.2,17.5,461.2,17.4,461.3,17.3z"/>
				<path class="st1" d="M483.8,16.2L483.8,16.2c-0.1,0.1-0.3,0.2-0.5,0.3c-0.4,0.1-0.8,0.2-1,0.2c-0.2,0-0.4,0-0.5,0
					c-0.6,0-0.9,0-1,0c0,0-0.1,0-0.2,0v0c-0.6,0-1.1,0.5-1.1,1.1v2.7c0,0.6,0.5,1.1,1.1,1.1h2.7c0.6,0,1.1-0.5,1.1-1.1
					c0-0.5,0-1.7,0-1.8c0-0.2,0-0.6,0.2-1c0.1-0.2,0.2-0.3,0.3-0.5c0-0.1,0.1-0.1,0.2-0.2l-1-1C483.9,16.1,483.9,16.1,483.8,16.2z"
					/>
				<path class="st2" d="M485.3,16.8L485.3,16.8c0.1-0.1,0.3-0.2,0.5-0.3c0.4-0.1,0.8-0.2,1-0.2c0.1,0,0.4,0,0.5,0c0.6,0,0.9,0,1,0
					c0,0,0.1,0,0.2,0v0c0.6,0,1.1-0.5,1.1-1.1v-2.7c0-0.6-0.5-1.1-1.1-1.1h-2.7c-0.6,0-1.1,0.5-1.1,1.1c0,0.5,0,1.7,0,1.8
					c0,0.2,0,0.6-0.2,1c-0.1,0.2-0.2,0.3-0.3,0.5c-0.1,0.1-0.1,0.2-0.2,0.2l1,1C485.1,17,485.2,16.9,485.3,16.8z"/>
				<path class="st1" d="M491.4,19.4l6,3c0.2,0.1,0.5,0,0.6-0.2l1.5-2.9c0.1-0.2,0-0.5-0.2-0.6l-6-3c-0.2-0.1-0.5,0-0.6,0.2
					l-1.5,2.9C491.1,19.1,491.2,19.3,491.4,19.4z"/>
			</g>
		</g>
	</g>
</g>
<g id="情報">
</g>
</svg>
